<?xml version="1.0" encoding="UTF-8"?>
<!DOCTYPE svg PUBLIC "-//W3C//DTD SVG 1.1//EN" "http://www.w3.org/Graphics/SVG/1.1/DTD/svg11.dtd">
<svg xmlns="http://www.w3.org/2000/svg" version="1.1" width="1024px" height="1024px" style="shape-rendering:geometricPrecision; text-rendering:geometricPrecision; image-rendering:optimizeQuality; fill-rule:evenodd; clip-rule:evenodd" xmlns:xlink="http://www.w3.org/1999/xlink">
<g><path style="opacity:1" fill="#2faf86" d="M 799.5,387.5 C 797.807,388.475 796.307,389.808 795,391.5C 689.258,535.063 583.758,678.73 478.5,822.5C 474.738,827.691 470.738,832.691 466.5,837.5C 455.766,829.812 445.1,822.145 434.5,814.5C 405.45,792.115 376.116,770.115 346.5,748.5C 376.521,708.471 406.188,668.138 435.5,627.5C 525.212,506.453 614.546,385.12 703.5,263.5C 722.757,237.32 742.257,211.32 762,185.5C 802.416,214.628 842.583,244.128 882.5,274C 854.615,311.711 826.949,349.545 799.5,387.5 Z"/></g>
<g><path style="opacity:1" fill="#eee5cd" d="M 703.5,263.5 C 614.546,385.12 525.212,506.453 435.5,627.5C 367.048,577.763 298.715,527.763 230.5,477.5C 219.809,491.185 209.143,504.852 198.5,518.5C 199.229,408.206 243.562,320.372 331.5,255C 422.737,194.787 520.071,182.787 623.5,219C 652.222,230.519 678.889,245.352 703.5,263.5 Z"/></g>
<g><path style="opacity:1" fill="#313552" d="M 728.5,250.5 C 737.559,255.731 745.892,261.898 753.5,269C 746.461,278.905 739.294,288.738 732,298.5C 731.333,299.5 731.333,300.5 732,301.5C 757.135,319.64 781.968,338.14 806.5,357C 799.008,367.321 791.342,377.488 783.5,387.5C 758.244,368.955 733.078,350.289 708,331.5C 700,342.167 692,352.833 684,363.5C 675.833,357.333 667.667,351.167 659.5,345C 682.876,313.737 705.876,282.237 728.5,250.5 Z"/></g>
<g><path style="opacity:1" fill="#313552" d="M 628.5,386.5 C 671.683,398.228 714.683,410.561 757.5,423.5C 749.956,434.089 742.289,444.589 734.5,455C 727.845,453.171 721.178,451.005 714.5,448.5C 705.148,459.857 696.148,471.524 687.5,483.5C 691.641,489.474 695.974,495.308 700.5,501C 692.667,511.5 684.833,522 677,532.5C 652.453,495.238 628.287,457.738 604.5,420C 612.316,408.686 620.316,397.52 628.5,386.5 Z"/></g>
<g><path style="opacity:1" fill="#ede5cd" d="M 799.5,387.5 C 836.744,481.225 832.244,572.892 786,662.5C 735.148,750.716 659.314,803.549 558.5,821C 531.866,824.892 505.199,825.392 478.5,822.5C 583.758,678.73 689.258,535.063 795,391.5C 796.307,389.808 797.807,388.475 799.5,387.5 Z"/></g>
<g><path style="opacity:1" fill="#2ead84" d="M 643.5,423.5 C 658.034,428.177 672.367,433.344 686.5,439C 681.359,446.308 676.026,453.474 670.5,460.5C 661.064,448.41 652.064,436.077 643.5,423.5 Z"/></g>
<g><path style="opacity:1" fill="#313552" d="M 567.5,469.5 C 601.678,493.427 635.345,518.094 668.5,543.5C 661.187,554.139 653.521,564.472 645.5,574.5C 631.859,564.693 618.359,554.693 605,544.5C 596.588,555.657 588.422,566.99 580.5,578.5C 593.615,588.898 606.948,599.064 620.5,609C 613.667,618.5 606.833,628 600,637.5C 599.261,638.574 598.261,639.241 597,639.5C 563.428,614.961 529.928,590.294 496.5,565.5C 503.923,554.988 511.59,544.655 519.5,534.5C 530.975,542.808 542.308,551.308 553.5,560C 554.449,560.617 555.282,560.451 556,559.5C 563.833,548.5 571.667,537.5 579.5,526.5C 569.717,518.768 559.717,511.268 549.5,504C 547.981,502.649 546.648,501.149 545.5,499.5C 552.472,489.201 559.805,479.201 567.5,469.5 Z"/></g>
<g><path style="opacity:1" fill="#b8405e" d="M 435.5,627.5 C 406.188,668.138 376.521,708.471 346.5,748.5C 312.471,723.824 278.471,699.157 244.5,674.5C 209.468,649.318 174.802,623.652 140.5,597.5C 159.858,571.148 179.191,544.815 198.5,518.5C 209.143,504.852 219.809,491.185 230.5,477.5C 298.715,527.763 367.048,577.763 435.5,627.5 Z"/></g>
<g><path style="opacity:1" fill="#313552" d="M 483.5,600.5 C 493.658,600.093 503.658,601.093 513.5,603.5C 509.461,613.916 505.128,624.25 500.5,634.5C 481.691,631.065 470.691,638.732 467.5,657.5C 467.441,663.49 469.274,668.824 473,673.5C 480.691,681.863 489.524,688.697 499.5,694C 512.389,699.564 522.889,696.731 531,685.5C 536.877,673.923 535.21,663.589 526,654.5C 525.333,653.5 525.333,652.5 526,651.5C 535,644.833 544,638.167 553,631.5C 568.304,648.356 571.637,667.356 563,688.5C 554.221,706.279 541.054,719.779 523.5,729C 504.789,734.229 487.123,731.895 470.5,722C 455.507,713.34 444.34,701.174 437,685.5C 430.341,666.131 433.008,648.131 445,631.5C 454.481,616.838 467.314,606.504 483.5,600.5 Z"/></g>
<g><path style="opacity:1" fill="#ede3c8" d="M 244.5,674.5 C 278.471,699.157 312.471,723.824 346.5,748.5C 376.116,770.115 405.45,792.115 434.5,814.5C 352.347,793.117 289.014,746.45 244.5,674.5 Z"/></g>
</svg>
