<svg id="svg" version="1.1" xmlns="http://www.w3.org/2000/svg" xmlns:xlink="http://www.w3.org/1999/xlink" width="400" height="400" viewBox="0, 0, 400,400"><g id="svgg"><path id="path0" d="M294.922 76.243 C 293.525 78.197,291.152 81.436,289.648 83.439 C 286.031 88.258,281.649 94.216,278.186 99.023 C 272.898 106.365,255.578 129.908,195.755 211.073 C 162.841 255.728,135.874 292.404,135.827 292.577 C 135.780 292.749,145.925 300.397,158.370 309.572 C 170.815 318.747,181.243 326.499,181.542 326.799 C 182.384 327.641,182.518 327.540,184.787 324.382 C 188.930 318.612,311.835 151.755,312.083 151.563 C 312.541 151.208,316.077 146.469,325.782 133.203 C 328.219 129.873,331.645 125.215,333.396 122.852 C 339.094 115.163,343.187 109.595,344.040 108.371 L 344.875 107.171 338.791 102.707 C 333.182 98.590,324.664 92.306,315.720 85.685 C 313.731 84.212,311.358 82.459,310.447 81.787 C 309.535 81.116,306.381 78.787,303.438 76.612 C 297.044 71.885,298.005 71.926,294.922 76.243 M290.374 101.742 L 294.892 105.101 290.415 111.128 C 287.952 114.443,285.942 117.294,285.948 117.464 C 285.954 117.634,292.539 122.607,300.580 128.516 C 308.622 134.424,315.209 139.383,315.218 139.537 C 315.237 139.865,306.642 151.563,306.382 151.563 C 306.228 151.563,301.145 147.836,281.007 132.959 L 276.662 129.749 272.068 135.973 C 269.016 140.109,267.328 142.085,267.038 141.863 C 266.798 141.679,264.619 140.076,262.195 138.301 L 257.788 135.074 258.484 134.007 C 261.425 129.497,285.057 98.082,285.409 98.214 C 285.655 98.306,287.889 99.894,290.374 101.742 M271.201 158.159 C 284.688 161.990,295.827 165.228,295.956 165.357 C 296.134 165.535,291.012 172.793,287.305 177.615 C 286.992 178.021,286.178 177.849,283.248 176.757 C 281.231 176.005,279.428 175.391,279.240 175.391 C 279.053 175.391,276.603 178.487,273.796 182.270 L 268.692 189.150 271.130 192.296 C 272.471 194.025,273.568 195.634,273.568 195.871 C 273.568 196.245,266.317 206.330,265.030 207.746 C 264.561 208.262,236.177 165.249,236.333 164.258 C 236.453 163.490,245.767 151.172,246.219 151.184 C 246.472 151.190,257.714 154.329,271.201 158.159 M251.852 166.212 C 252.434 167.252,261.907 180.023,262.109 180.041 C 262.528 180.077,268.334 171.694,268.062 171.447 C 267.799 171.207,252.111 165.625,251.700 165.625 C 251.603 165.625,251.672 165.889,251.852 166.212 M242.773 198.614 C 252.871 206.060,261.186 212.304,261.252 212.489 C 261.354 212.775,254.329 222.605,252.909 224.164 C 252.509 224.604,251.042 223.676,244.476 218.834 L 236.528 212.971 231.741 219.441 C 229.108 223.000,226.953 226.044,226.953 226.207 C 226.953 226.370,230.237 228.934,234.252 231.904 C 238.266 234.874,241.801 237.492,242.107 237.721 C 242.668 238.141,234.387 250.000,233.533 250.000 C 233.295 250.000,200.424 225.977,194.207 221.259 C 194.136 221.205,196.059 218.466,198.479 215.171 C 200.900 211.876,202.927 209.114,202.985 209.034 C 203.043 208.955,206.207 211.191,210.016 214.005 L 216.943 219.120 221.753 212.620 C 224.398 209.045,226.563 205.997,226.563 205.846 C 226.563 205.695,223.500 203.326,219.758 200.581 L 212.953 195.591 215.297 192.424 C 216.586 190.683,218.624 187.910,219.826 186.263 L 222.012 183.268 223.213 184.172 C 223.874 184.669,232.676 191.168,242.773 198.614 M198.163 235.311 C 199.408 235.604,200.533 235.949,200.662 236.079 C 200.792 236.208,199.701 239.029,198.239 242.348 L 195.580 248.382 192.915 248.158 C 188.366 247.777,185.380 249.582,183.489 253.856 C 180.983 259.523,185.974 266.689,195.546 271.169 C 204.892 275.542,212.630 266.032,206.789 257.352 C 205.103 254.847,204.743 255.418,210.938 250.775 L 216.211 246.822 217.307 248.118 C 217.910 248.831,219.141 250.895,220.042 252.704 L 221.680 255.995 221.674 260.712 C 221.664 268.724,216.120 278.016,208.354 283.039 C 192.059 293.578,165.671 274.969,170.089 256.055 C 173.383 241.956,186.189 232.493,198.163 235.311 " stroke="none" fill="#2cb283" fill-rule="evenodd"></path><path id="path1" d="M84.541 194.043 C 81.585 198.071,78.689 201.895,78.103 202.539 C 74.424 206.589,55.057 233.737,55.536 234.172 C 56.470 235.021,95.617 263.672,95.843 263.672 C 95.964 263.672,104.799 270.104,115.476 277.966 C 126.153 285.827,135.081 292.327,135.315 292.410 C 135.550 292.492,143.518 281.996,153.021 269.085 L 170.301 245.611 169.428 244.940 C 166.515 242.701,90.222 186.719,90.084 186.719 C 89.990 186.719,87.496 190.015,84.541 194.043 " stroke="none" fill="#bc445c" fill-rule="evenodd"></path><path id="path2" d="M272.070 115.493 C 264.980 125.089,258.867 133.420,258.484 134.007 L 257.788 135.074 262.195 138.301 C 264.619 140.076,266.798 141.679,267.038 141.863 C 267.328 142.085,269.016 140.109,272.068 135.973 L 276.662 129.749 281.007 132.959 C 301.145 147.836,306.228 151.563,306.382 151.563 C 306.642 151.563,315.237 139.865,315.218 139.537 C 315.209 139.383,308.622 134.424,300.580 128.516 C 292.539 122.607,285.954 117.634,285.948 117.464 C 285.942 117.294,287.952 114.443,290.415 111.128 L 294.892 105.101 290.374 101.742 C 287.889 99.894,285.655 98.306,285.409 98.214 C 285.162 98.121,279.160 105.897,272.070 115.493 M241.076 157.520 C 238.501 161.011,236.366 164.043,236.333 164.258 C 236.177 165.249,264.561 208.262,265.030 207.746 C 266.317 206.330,273.568 196.245,273.568 195.871 C 273.568 195.634,272.471 194.025,271.130 192.296 L 268.692 189.150 273.796 182.270 C 276.603 178.487,279.053 175.391,279.240 175.391 C 279.428 175.391,281.231 176.005,283.248 176.757 C 286.178 177.849,286.992 178.021,287.305 177.615 C 291.012 172.793,296.134 165.535,295.956 165.357 C 295.694 165.095,246.940 151.202,246.219 151.184 C 245.966 151.177,243.651 154.028,241.076 157.520 M259.825 168.404 C 264.197 169.933,267.903 171.302,268.062 171.447 C 268.334 171.694,262.528 180.077,262.109 180.041 C 261.907 180.023,252.434 167.252,251.852 166.212 C 251.411 165.423,250.889 165.280,259.825 168.404 M219.826 186.263 C 218.624 187.910,216.586 190.683,215.297 192.424 L 212.953 195.591 219.758 200.581 C 223.500 203.326,226.563 205.695,226.563 205.846 C 226.563 205.997,224.398 209.045,221.753 212.620 L 216.943 219.120 210.016 214.005 C 206.207 211.191,203.043 208.955,202.985 209.034 C 202.927 209.114,200.900 211.876,198.479 215.171 C 196.059 218.466,194.136 221.205,194.207 221.259 C 200.424 225.977,233.295 250.000,233.533 250.000 C 234.387 250.000,242.668 238.141,242.107 237.721 C 241.801 237.492,238.266 234.874,234.252 231.904 C 230.237 228.934,226.953 226.370,226.953 226.207 C 226.953 226.044,229.108 223.000,231.741 219.441 L 236.528 212.971 244.476 218.834 C 251.042 223.676,252.509 224.604,252.909 224.164 C 254.329 222.605,261.354 212.775,261.252 212.489 C 261.186 212.304,252.871 206.060,242.773 198.614 C 232.676 191.168,223.874 184.669,223.213 184.172 L 222.012 183.268 219.826 186.263 M187.248 235.571 C 177.900 238.534,169.017 251.828,169.646 261.914 C 170.564 276.651,189.985 289.852,203.862 285.172 C 213.339 281.976,221.662 270.546,221.674 260.712 L 221.680 255.995 220.042 252.704 C 219.141 250.895,217.910 248.831,217.307 248.118 L 216.211 246.822 210.938 250.775 C 204.743 255.418,205.103 254.847,206.789 257.352 C 212.630 266.032,204.892 275.542,195.546 271.169 C 185.974 266.689,180.983 259.523,183.489 253.856 C 185.380 249.582,188.366 247.777,192.915 248.158 L 195.580 248.382 198.239 242.348 C 199.701 239.029,200.792 236.208,200.662 236.079 C 199.327 234.743,190.868 234.423,187.248 235.571 " stroke="none" fill="#333454" fill-rule="evenodd"></path><path id="path3" d="M190.234 78.367 C 132.916 83.484,87.752 125.928,79.304 182.617 C 78.218 189.906,77.800 202.919,78.690 201.758 C 79.019 201.328,81.619 197.826,84.468 193.976 C 87.317 190.125,89.824 186.921,90.039 186.855 C 90.254 186.789,108.348 199.919,130.249 216.032 C 152.150 232.145,170.203 245.281,170.368 245.223 C 170.533 245.165,194.118 213.302,222.779 174.417 L 274.890 103.718 271.916 101.499 C 249.722 84.943,217.812 75.906,190.234 78.367 M249.465 236.372 C 215.118 282.989,187.140 321.255,187.291 321.405 C 188.042 322.157,211.483 321.656,217.188 320.766 C 271.802 312.244,312.537 271.563,320.706 217.383 C 323.756 197.154,320.469 170.551,312.829 153.638 L 311.914 151.612 249.465 236.372 M96.484 264.377 C 96.484 264.553,97.545 266.252,98.842 268.152 C 115.006 291.841,138.287 308.890,165.505 316.974 C 167.999 317.714,169.881 318.171,169.687 317.988 C 169.494 317.805,154.219 306.537,135.742 292.947 C 117.266 279.357,100.874 267.297,99.316 266.147 C 97.759 264.998,96.484 264.201,96.484 264.377 " stroke="none" fill="#ebe3cb" fill-rule="evenodd"></path><path id="path4" d="M196.582 78.025 C 198.462 78.097,201.538 78.097,203.418 78.025 C 205.298 77.954,203.760 77.895,200.000 77.895 C 196.240 77.895,194.702 77.954,196.582 78.025 M188.770 78.405 C 189.360 78.494,190.327 78.494,190.918 78.405 C 191.509 78.315,191.025 78.242,189.844 78.242 C 188.662 78.242,188.179 78.315,188.770 78.405 M209.082 78.405 C 209.673 78.494,210.640 78.494,211.230 78.405 C 211.821 78.315,211.338 78.242,210.156 78.242 C 208.975 78.242,208.491 78.315,209.082 78.405 M185.063 78.792 C 185.549 78.885,186.252 78.882,186.626 78.784 C 186.999 78.686,186.602 78.610,185.742 78.614 C 184.883 78.618,184.577 78.698,185.063 78.792 M213.579 78.792 C 214.065 78.885,214.768 78.882,215.141 78.784 C 215.515 78.686,215.117 78.610,214.258 78.614 C 213.398 78.618,213.093 78.698,213.579 78.792 M182.129 79.176 C 182.505 79.274,183.120 79.274,183.496 79.176 C 183.872 79.077,183.564 78.997,182.813 78.997 C 182.061 78.997,181.753 79.077,182.129 79.176 M216.504 79.176 C 216.880 79.274,217.495 79.274,217.871 79.176 C 218.247 79.077,217.939 78.997,217.188 78.997 C 216.436 78.997,216.128 79.077,216.504 79.176 M167.773 82.031 C 167.281 82.243,167.209 82.367,167.578 82.367 C 167.900 82.367,168.516 82.216,168.945 82.031 C 169.438 81.820,169.510 81.696,169.141 81.696 C 168.818 81.696,168.203 81.847,167.773 82.031 M231.055 82.031 C 231.484 82.216,232.100 82.367,232.422 82.367 C 232.791 82.367,232.719 82.243,232.227 82.031 C 231.797 81.847,231.182 81.696,230.859 81.696 C 230.490 81.696,230.562 81.820,231.055 82.031 M165.039 82.813 C 164.547 83.024,164.474 83.148,164.844 83.148 C 165.166 83.148,165.781 82.997,166.211 82.813 C 166.703 82.601,166.776 82.477,166.406 82.477 C 166.084 82.477,165.469 82.628,165.039 82.813 M233.789 82.813 C 234.219 82.997,234.834 83.148,235.156 83.148 C 235.526 83.148,235.453 83.024,234.961 82.813 C 234.531 82.628,233.916 82.477,233.594 82.477 C 233.224 82.477,233.297 82.601,233.789 82.813 M160.815 84.056 C 159.567 84.491,158.613 84.915,158.697 84.999 C 158.780 85.082,160.066 84.726,161.553 84.206 C 163.041 83.686,163.994 83.262,163.672 83.263 C 163.350 83.264,162.064 83.621,160.815 84.056 M238.447 84.206 C 239.934 84.726,241.219 85.084,241.301 85.001 C 241.481 84.821,236.740 83.191,236.155 83.232 C 235.928 83.248,236.959 83.686,238.447 84.206 M156.445 85.756 C 155.469 86.226,155.436 86.281,156.250 86.082 C 157.357 85.811,158.601 85.177,158.008 85.186 C 157.793 85.189,157.090 85.445,156.445 85.756 M242.188 85.481 C 242.510 85.680,243.213 85.961,243.750 86.104 C 244.429 86.286,244.548 86.255,244.141 86.003 C 243.818 85.804,243.115 85.524,242.578 85.380 C 241.899 85.199,241.780 85.229,242.188 85.481 M151.563 87.695 C 151.025 88.002,150.762 88.254,150.977 88.254 C 151.191 88.254,151.807 88.002,152.344 87.695 C 152.881 87.388,153.145 87.137,152.930 87.137 C 152.715 87.137,152.100 87.388,151.563 87.695 M247.656 87.695 C 248.193 88.002,248.809 88.254,249.023 88.254 C 249.238 88.254,248.975 88.002,248.438 87.695 C 247.900 87.388,247.285 87.137,247.070 87.137 C 246.855 87.137,247.119 87.388,247.656 87.695 M145.215 90.648 C 142.690 91.928,140.625 93.063,140.625 93.170 C 140.625 93.345,149.961 88.800,150.358 88.432 C 150.965 87.870,149.175 88.641,145.215 90.648 M249.642 88.432 C 250.039 88.800,259.375 93.345,259.375 93.170 C 259.375 92.954,250.171 88.281,249.746 88.281 C 249.599 88.281,249.552 88.349,249.642 88.432 M136.143 95.717 C 119.336 105.964,102.770 122.922,94.372 138.477 C 92.969 141.074,93.645 140.121,96.725 135.156 C 106.359 119.626,121.142 105.047,136.619 95.811 C 139.766 93.933,140.586 93.359,140.122 93.359 C 140.060 93.359,138.269 94.420,136.143 95.717 M259.766 93.462 C 259.766 93.559,261.591 94.740,263.823 96.085 C 266.054 97.431,269.396 99.654,271.250 101.024 C 273.103 102.394,274.731 103.516,274.868 103.516 C 275.287 103.516,270.193 99.767,266.740 97.536 C 262.834 95.011,259.766 93.219,259.766 93.462 M90.604 145.354 C 89.300 147.955,88.295 150.144,88.371 150.220 C 88.446 150.295,89.599 148.167,90.932 145.491 C 92.265 142.815,93.270 140.625,93.165 140.625 C 93.060 140.625,91.908 142.753,90.604 145.354 M87.563 151.775 C 86.909 153.211,87.034 153.517,87.742 152.212 C 88.072 151.602,88.269 151.030,88.180 150.940 C 88.091 150.851,87.813 151.226,87.563 151.775 M85.590 156.684 C 85.350 157.374,85.221 158.008,85.305 158.091 C 85.388 158.175,85.653 157.678,85.894 156.988 C 86.135 156.298,86.263 155.664,86.180 155.581 C 86.096 155.497,85.831 155.994,85.590 156.684 M313.896 156.250 C 314.039 156.787,314.320 157.490,314.519 157.813 C 314.771 158.220,314.801 158.101,314.620 157.422 C 314.476 156.885,314.196 156.182,313.997 155.859 C 313.745 155.452,313.714 155.571,313.896 156.250 M84.028 160.991 C 83.574 162.334,83.216 163.619,83.232 163.845 C 83.248 164.072,83.686 163.041,84.206 161.553 C 84.726 160.066,85.084 158.781,85.001 158.699 C 84.919 158.617,84.481 159.649,84.028 160.991 M315.070 159.473 C 315.820 161.836,316.743 164.213,316.768 163.845 C 316.807 163.281,315.208 158.594,314.977 158.594 C 314.875 158.594,314.917 158.989,315.070 159.473 M82.645 165.458 C 82.501 166.030,82.459 166.574,82.551 166.666 C 82.643 166.758,82.836 166.365,82.980 165.792 C 83.124 165.220,83.166 164.676,83.074 164.584 C 82.982 164.492,82.789 164.885,82.645 165.458 M316.852 164.844 C 316.852 165.166,317.003 165.781,317.188 166.211 C 317.399 166.703,317.523 166.776,317.523 166.406 C 317.523 166.084,317.372 165.469,317.188 165.039 C 316.976 164.547,316.852 164.474,316.852 164.844 M81.864 168.192 C 81.720 168.764,81.678 169.308,81.770 169.400 C 81.862 169.492,82.055 169.099,82.199 168.527 C 82.342 167.954,82.385 167.411,82.292 167.319 C 82.200 167.226,82.008 167.619,81.864 168.192 M317.633 167.578 C 317.633 167.900,317.784 168.516,317.969 168.945 C 318.180 169.438,318.304 169.510,318.304 169.141 C 318.304 168.818,318.153 168.203,317.969 167.773 C 317.757 167.281,317.633 167.209,317.633 167.578 M78.997 182.813 C 78.997 183.564,79.077 183.872,79.176 183.496 C 79.274 183.120,79.274 182.505,79.176 182.129 C 79.077 181.753,78.997 182.061,78.997 182.813 M320.794 182.813 C 320.794 183.564,320.874 183.872,320.972 183.496 C 321.071 183.120,321.071 182.505,320.972 182.129 C 320.874 181.753,320.794 182.061,320.794 182.813 M78.614 185.742 C 78.618 186.602,78.698 186.907,78.792 186.421 C 78.885 185.935,78.882 185.232,78.784 184.859 C 78.686 184.485,78.610 184.883,78.614 185.742 M321.192 185.742 C 321.197 186.602,321.277 186.907,321.370 186.421 C 321.463 185.935,321.460 185.232,321.362 184.859 C 321.264 184.485,321.188 184.883,321.192 185.742 M78.242 189.844 C 78.242 191.025,78.315 191.509,78.405 190.918 C 78.494 190.327,78.494 189.360,78.405 188.770 C 78.315 188.179,78.242 188.662,78.242 189.844 M321.601 189.844 C 321.601 191.025,321.675 191.509,321.764 190.918 C 321.854 190.327,321.854 189.360,321.764 188.770 C 321.675 188.179,321.601 188.662,321.601 189.844 M77.885 198.047 C 77.885 200.732,77.947 201.831,78.024 200.488 C 78.100 199.146,78.100 196.948,78.024 195.605 C 77.947 194.263,77.885 195.361,77.885 198.047 M322.036 200.000 C 322.036 203.760,322.094 205.298,322.166 203.418 C 322.237 201.538,322.237 198.462,322.166 196.582 C 322.094 194.702,322.036 196.240,322.036 200.000 M321.601 210.156 C 321.601 211.338,321.675 211.821,321.764 211.230 C 321.854 210.640,321.854 209.673,321.764 209.082 C 321.675 208.491,321.601 208.975,321.601 210.156 M321.192 214.258 C 321.197 215.117,321.277 215.423,321.370 214.937 C 321.463 214.451,321.460 213.748,321.362 213.374 C 321.264 213.001,321.188 213.398,321.192 214.258 M320.794 217.188 C 320.794 217.939,320.874 218.247,320.972 217.871 C 321.071 217.495,321.071 216.880,320.972 216.504 C 320.874 216.128,320.794 216.436,320.794 217.188 M317.801 231.473 C 317.658 232.046,317.615 232.589,317.708 232.681 C 317.800 232.774,317.992 232.381,318.136 231.808 C 318.280 231.236,318.322 230.692,318.230 230.600 C 318.138 230.508,317.945 230.901,317.801 231.473 M317.020 234.208 C 316.876 234.780,316.834 235.324,316.926 235.416 C 317.018 235.508,317.211 235.115,317.355 234.542 C 317.499 233.970,317.541 233.426,317.449 233.334 C 317.357 233.242,317.164 233.635,317.020 234.208 M315.712 238.563 C 315.246 239.996,314.930 241.232,315.010 241.312 C 315.089 241.391,315.542 240.291,316.016 238.867 C 316.489 237.443,316.805 236.206,316.718 236.119 C 316.630 236.031,316.177 237.131,315.712 238.563 M314.106 243.012 C 313.865 243.702,313.737 244.336,313.820 244.419 C 313.904 244.503,314.169 244.006,314.410 243.316 C 314.650 242.626,314.779 241.992,314.695 241.909 C 314.612 241.825,314.347 242.322,314.106 243.012 M312.173 247.868 C 311.518 249.305,311.643 249.611,312.351 248.305 C 312.681 247.695,312.879 247.123,312.789 247.034 C 312.700 246.945,312.423 247.320,312.173 247.868 M309.068 254.509 C 307.735 257.185,306.730 259.375,306.835 259.375 C 307.094 259.375,311.802 249.953,311.629 249.780 C 311.554 249.705,310.401 251.833,309.068 254.509 M304.189 263.381 C 294.953 278.858,280.374 293.641,264.844 303.275 C 259.879 306.355,258.926 307.031,261.523 305.628 C 273.783 299.009,288.056 286.306,297.931 273.225 C 301.313 268.746,307.050 259.766,306.531 259.766 C 306.429 259.766,305.375 261.393,304.189 263.381 M96.133 264.551 C 102.851 277.469,123.597 297.594,138.477 305.628 C 141.074 307.031,140.121 306.355,135.156 303.275 C 123.912 296.300,112.544 286.095,104.325 275.598 C 100.475 270.682,96.484 264.872,96.484 264.185 C 96.484 263.903,96.302 263.672,96.080 263.672 C 95.817 263.672,95.835 263.979,96.133 264.551 M140.625 306.835 C 140.625 307.094,150.047 311.802,150.220 311.629 C 150.295 311.554,148.167 310.401,145.491 309.068 C 142.815 307.735,140.625 306.730,140.625 306.835 M254.297 309.180 C 251.611 310.554,249.549 311.687,249.713 311.698 C 250.128 311.727,259.375 307.070,259.375 306.833 C 259.375 306.566,259.687 306.421,254.297 309.180 M151.563 312.305 C 152.100 312.612,152.715 312.863,152.930 312.863 C 153.145 312.863,152.881 312.612,152.344 312.305 C 151.807 311.998,151.191 311.746,150.977 311.746 C 150.762 311.746,151.025 311.998,151.563 312.305 M247.656 312.305 C 247.119 312.612,246.855 312.863,247.070 312.863 C 247.285 312.863,247.900 312.612,248.438 312.305 C 248.975 311.998,249.238 311.746,249.023 311.746 C 248.809 311.746,248.193 311.998,247.656 312.305 M155.859 313.997 C 156.182 314.196,156.885 314.476,157.422 314.620 C 158.101 314.801,158.220 314.771,157.813 314.519 C 157.490 314.320,156.787 314.039,156.250 313.896 C 155.571 313.714,155.452 313.745,155.859 313.997 M242.773 314.272 C 241.797 314.742,241.764 314.796,242.578 314.597 C 243.685 314.327,244.929 313.693,244.336 313.701 C 244.121 313.705,243.418 313.961,242.773 314.272 M158.594 314.977 C 158.594 315.208,163.281 316.807,163.845 316.768 C 164.072 316.753,163.379 316.427,162.305 316.044 C 159.339 314.988,158.594 314.774,158.594 314.977 M238.281 315.820 C 236.885 316.324,235.928 316.750,236.155 316.766 C 236.677 316.805,241.406 315.217,241.406 315.003 C 241.406 314.740,240.938 314.862,238.281 315.820 M165.039 317.188 C 165.469 317.372,166.084 317.523,166.406 317.523 C 166.776 317.523,166.703 317.399,166.211 317.188 C 165.781 317.003,165.166 316.852,164.844 316.852 C 164.474 316.852,164.547 316.976,165.039 317.188 M233.789 317.188 C 233.297 317.399,233.224 317.523,233.594 317.523 C 233.916 317.523,234.531 317.372,234.961 317.188 C 235.453 316.976,235.526 316.852,235.156 316.852 C 234.834 316.852,234.219 317.003,233.789 317.188 M167.773 317.969 C 168.203 318.153,168.818 318.304,169.141 318.304 C 169.510 318.304,169.438 318.180,168.945 317.969 C 168.516 317.784,167.900 317.633,167.578 317.633 C 167.209 317.633,167.281 317.757,167.773 317.969 M231.055 317.969 C 230.562 318.180,230.490 318.304,230.859 318.304 C 231.182 318.304,231.797 318.153,232.227 317.969 C 232.719 317.757,232.791 317.633,232.422 317.633 C 232.100 317.633,231.484 317.784,231.055 317.969 M216.504 320.972 C 216.880 321.071,217.495 321.071,217.871 320.972 C 218.247 320.874,217.939 320.794,217.188 320.794 C 216.436 320.794,216.128 320.874,216.504 320.972 M213.579 321.370 C 214.065 321.463,214.768 321.460,215.141 321.362 C 215.515 321.264,215.117 321.188,214.258 321.192 C 213.398 321.197,213.093 321.277,213.579 321.370 M188.770 321.764 C 189.360 321.854,190.327 321.854,190.918 321.764 C 191.509 321.675,191.025 321.601,189.844 321.601 C 188.662 321.601,188.179 321.675,188.770 321.764 M209.082 321.764 C 209.673 321.854,210.640 321.854,211.230 321.764 C 211.821 321.675,211.338 321.601,210.156 321.601 C 208.975 321.601,208.491 321.675,209.082 321.764 M196.582 322.166 C 198.462 322.237,201.538 322.237,203.418 322.166 C 205.298 322.094,203.760 322.036,200.000 322.036 C 196.240 322.036,194.702 322.094,196.582 322.166 " stroke="none" fill="#f4db80" fill-rule="evenodd"></path></g></svg>